<svg xmlns="http://www.w3.org/2000/svg" width="800px" height="800px" viewBox="0 0 1024 1024" class="icon"><path d="M993.762 494.538v35c0 13.332-6.04 26.664-18.135 37.137-140.149 121.423-280.35 242.794-420.49 364.22-11.813 10.236-25.813 15.5-42.454 15.5v-35c16.644 0 30.641-5.264 42.454-15.5 140.142-121.426 280.336-242.803 420.49-364.22 12.095-10.474 18.135-23.801 18.135-37.137z" fill="#EFC454"></path><path d="M30.238 529.365v-3.5-1.75-3.5-3.5-1.75-3.5-3.5-1.75-3.5-3.5-1.75-3.5c0 14.708 6.701 29.312 19.037 40.019 138.449 120.065 277.05 239.997 415.562 360.019 13.002 11.262 28.74 16.469 47.853 16.996v35c-19.108-0.527-34.851-5.734-47.853-16.996C326.324 809.382 187.725 689.45 49.275 569.385c-12.337-10.705-19.037-25.311-19.037-40.02z" fill="#EFC454"></path><path d="M510.785 77.601c16.263 0 32.546 5.362 44.946 16.097 139.949 121.188 279.9 242.375 419.818 363.584 24.241 20.995 24.295 53.414 0.079 74.396-140.149 121.421-280.35 242.798-420.489 364.22-11.814 10.238-25.813 15.502-42.451 15.502-19.109-0.529-34.853-5.734-47.854-16.994C326.323 774.382 187.724 654.45 49.275 534.385c-19.58-16.986-24.961-43.809-11.895-65.251 3.918-6.437 8.667-11.829 14.465-16.85 138.107-119.549 276.18-239.132 414.261-358.717 12.296-10.641 28.478-15.966 44.679-15.966z" fill="#F6D980"></path><path d="M692.027 365.111v16.8c0 5.308-2.237 10.77-6.719 16.248-5.172 6.33-10.523 12.555-15.502 18.989-0.58 0.748-0.885 1.894-0.885 2.98v-16.8c0-1.087 0.305-2.232 0.885-2.98 4.979-6.435 10.33-12.66 15.502-18.989 4.482-5.477 6.719-10.941 6.719-16.248z" fill="#792B1D"></path><path d="M692.027 365.111v16.8c0 0.396-0.014 0.792-0.037 1.191v-16.8c0.025-0.397 0.037-0.793 0.037-1.191M691.99 366.303v16.8c-0.312 4.933-2.533 9.99-6.68 15.058-5.172 6.33-10.523 12.555-15.503 18.989-0.517 0.667-0.813 1.648-0.873 2.625v-16.8c0.06-0.976 0.356-1.958 0.873-2.625 4.979-6.435 10.331-12.66 15.503-18.989 4.147-5.069 6.37-10.126 6.68-15.058M668.934 402.975v16.8a5.301 5.301 0 0 0-0.011 0.355v-16.8c0-0.118 0.003-0.236 0.011-0.355" fill="#792B1D"></path><path d="M344.813 404.168v16.8c0-1.005-0.282-2.064-0.819-2.755-5.333-6.844-11.039-13.478-16.472-20.271-4.081-5.101-6.113-10.345-6.113-15.468v-16.799c0 5.122 2.032 10.367 6.113 15.468 5.433 6.793 11.139 13.427 16.472 20.271 0.536 0.69 0.819 1.75 0.819 2.754z" fill="#792B1D"></path><path d="M344.813 404.168v16.8c0-1.005-0.282-2.064-0.819-2.755-5.333-6.844-11.039-13.478-16.472-20.271-4.081-5.101-6.113-10.345-6.113-15.468v-16.799c0 5.122 2.032 10.367 6.113 15.468 5.433 6.793 11.139 13.427 16.472 20.271 0.536 0.69 0.819 1.75 0.819 2.754" fill="#792B1D"></path><path d="M504.791 429.565v-0.165-0.175-0.181-0.185-0.186-0.18-0.175-0.164-1.796-1.906-1.979-2.012-2.015-1.979-1.906-1.796c0.408-0.011 0.814-0.018 1.224-0.021a54.448 54.448 0 0 1 1.225-0.003c40.279 0.264 72.897 28.563 72.97 63.316v16.799c-0.071-34.754-32.691-63.056-72.97-63.318l-0.525-0.001c-0.234 0-0.466 0.001-0.7 0.004-0.41 0.008-0.818 0.015-1.224 0.024z" fill="#792B1D"></path><path d="M580.207 476.059v16.802c-0.07-34.754-32.69-63.056-72.969-63.318l-0.525-0.001a82.093 82.093 0 0 0-11.077 0.749v-16.8a81.907 81.907 0 0 1 11.602-0.748c40.279 0.263 72.899 28.564 72.969 63.316" fill="#792B1D"></path><path d="M504.791 429.565c-38.958 0.903-70.904 29.228-70.854 63.363v-16.8c-0.049-34.136 31.896-62.458 70.854-63.364v16.801z" fill="#792B1D"></path><path d="M580.207 476.059v16.802c-0.07-34.754-32.69-63.056-72.969-63.318l-0.525-0.001a82.093 82.093 0 0 0-11.077 0.749v-16.8a81.907 81.907 0 0 1 11.602-0.748c40.279 0.263 72.899 28.564 72.969 63.316" fill="#792B1D"></path><path d="M495.637 413.491v16.8a80.13 80.13 0 0 0-16.826 4.173v-16.8a80.13 80.13 0 0 1 16.826-4.173" fill="#792B1D"></path><path d="M478.813 417.664v16.8a76.832 76.832 0 0 0-14.871 7.358v-16.8a76.804 76.804 0 0 1 14.871-7.358M463.94 425.022v16.8c-6.028 3.853-11.368 8.487-15.81 13.726v-16.8c4.442-5.239 9.783-9.873 15.81-13.726" fill="#792B1D"></path><path d="M448.132 438.747v16.8c-8.172 9.637-13.302 21.314-14.089 33.905v-16.8c0.786-12.59 5.917-24.268 14.089-33.905M434.042 472.652v16.8a54.188 54.188 0 0 0-0.107 3.477v-16.8a54.188 54.188 0 0 1 0.107-3.477" fill="#792B1D"></path><path d="M506.414 390.405c55.367 0.183 99.527 38.454 99.588 85.68 0.07 46.93-44.264 85.523-98.107 85.675-0.601 0.001-0.885 0-1.171-0.003-54.651-0.408-98.561-38.453-98.583-85.276l0.001-0.555c0.001-0.186 0.003-0.369 0.006-0.554 0.659-46.956 44.457-84.817 98.266-84.967z m1.469 149.014c39.601-0.222 72.396-28.847 72.324-63.36-0.07-34.752-32.69-63.053-72.969-63.316l-0.525-0.001c-0.234 0-0.466 0.001-0.7 0.004-39.51 0.332-72.127 28.89-72.078 63.383 0.052 34.788 32.589 63.027 72.939 63.29 0.178 0.002 0.364 0.002 0.542 0.002l0.467-0.002" fill="#D8C48E"></path><path d="M668.277 565.953v-16.8c0-0.67 0.203-1.387 0.633-2.219 3.689-7.187 6.873-14.563 10.614-21.729 0.732-1.407 2.913-2.849 4.688-3.153 9.07-1.545 18.233-2.644 27.337-4.041 12.295-1.896 20.442-7.917 23.939-18.437 0.192-0.596 0.604-1.146 0.905-1.713v16.8c-0.303 0.566-0.715 1.119-0.905 1.713-3.497 10.52-11.644 16.54-23.939 18.437-9.104 1.397-18.267 2.496-27.337 4.041-1.774 0.307-3.952 1.746-4.688 3.153-3.741 7.165-6.925 14.544-10.614 21.729-0.429 0.834-0.633 1.55-0.633 2.219z" fill="#792B1D"></path><path d="M736.395 497.866v16.8c-0.303 0.568-0.715 1.12-0.905 1.713-1.136 3.414-2.761 6.355-4.857 8.836v-16.8c2.099-2.479 3.722-5.421 4.857-8.836 0.192-0.595 0.603-1.146 0.905-1.713M730.631 508.414v16.8a24.61 24.61 0 0 1-5.551 4.83v-16.8a24.635 24.635 0 0 0 5.551-4.83" fill="#792B1D"></path><path d="M725.08 513.244v16.8c-1.736 1.11-3.649 2.047-5.736 2.813v-16.802c2.087-0.764 4-1.701 5.736-2.811" fill="#792B1D"></path><path d="M719.345 516.056v16.802c-2.375 0.872-4.977 1.521-7.794 1.957-9.104 1.396-18.268 2.497-27.337 4.042-0.328 0.058-0.67 0.15-1.012 0.276v-16.8a5.712 5.712 0 0 1 1.012-0.277c9.069-1.545 18.233-2.645 27.337-4.042 2.817-0.435 5.419-1.085 7.794-1.958M683.2 522.333v16.8a8.106 8.106 0 0 0-1.569 0.786v-16.8a8.192 8.192 0 0 1 1.569-0.786M681.631 523.119v16.8c-0.626 0.4-1.193 0.875-1.613 1.373v-16.801c0.42-0.497 0.987-0.97 1.613-1.372" fill="#792B1D"></path><path d="M680.018 524.491v16.801c-0.2 0.234-0.367 0.477-0.494 0.716-3.739 7.166-6.923 14.543-10.612 21.729-0.387 0.75-0.592 1.406-0.627 2.015V548.95c0.035-0.609 0.24-1.266 0.627-2.014 3.689-7.187 6.873-14.563 10.612-21.729 0.125-0.239 0.292-0.48 0.494-0.716M668.283 548.95v16.801c-0.003 0.068-0.006 0.135-0.006 0.203v-16.8c0-0.068 0.003-0.135 0.006-0.204" fill="#792B1D"></path><path d="M346.176 550.124v16.8c0-0.925-0.34-1.882-0.935-2.997-3.548-6.679-6.895-13.442-9.878-20.322-1.109-2.558-2.693-3.604-5.616-3.996-9.13-1.24-18.233-2.646-27.345-3.975-8.861-1.292-16-4.975-20.615-11.724-1.795-2.618-2.812-5.631-4.185-8.467v-16.8c1.373 2.834 2.39 5.849 4.185 8.467 4.616 6.748 11.755 10.431 20.615 11.723 9.111 1.328 18.215 2.733 27.345 3.974 2.923 0.393 4.507 1.439 5.616 3.996 2.983 6.88 6.329 13.646 9.878 20.323 0.595 1.116 0.935 2.073 0.935 2.998z" fill="#792B1D"></path><path d="M346.176 550.124v16.8c0-0.925-0.34-1.882-0.935-2.997-3.548-6.679-6.895-13.442-9.878-20.322-1.109-2.558-2.693-3.604-5.616-3.996-9.13-1.24-18.233-2.646-27.345-3.975-8.861-1.292-16-4.975-20.615-11.724-1.795-2.618-2.812-5.631-4.185-8.467v-16.8c1.373 2.834 2.39 5.849 4.185 8.467 4.616 6.748 11.755 10.431 20.615 11.723 9.111 1.328 18.215 2.733 27.345 3.974 2.923 0.393 4.507 1.439 5.616 3.996 2.983 6.88 6.329 13.646 9.878 20.323 0.595 1.116 0.935 2.073 0.935 2.998" fill="#792B1D"></path><path d="M726.79 440.373c5.554 3.179 7.641 8.713 9.604 14.036v43.456c-0.303 0.566-0.715 1.12-0.905 1.713-3.497 10.519-11.644 16.54-23.939 18.436-9.104 1.397-18.267 2.497-27.337 4.042-1.774 0.306-3.952 1.745-4.688 3.152-3.741 7.165-6.925 14.543-10.614 21.729-1.089 2.111-0.729 3.473 0.727 5.201 5.371 6.357 10.646 12.791 15.866 19.25 9.342 11.539 8.295 23.691-3.046 33.746-8.771 7.772-17.621 15.471-26.611 23.038-6.368 5.362-13.427 8.045-20.694 8.045-6.03 0-12.206-1.845-18.253-5.538-7.439-4.551-14.889-9.09-22.196-13.786-1.143-0.731-2.144-1.057-3.191-1.057-0.876 0-1.785 0.225-2.845 0.629a597.31 597.31 0 0 1-24.355 8.712c-2.711 0.893-4 2.096-4.435 4.594-1.37 7.916-2.942 15.81-4.535 23.699-2.479 12.23-12.992 20.847-26.793 21.188a866.735 866.735 0 0 1-43.443-0.016c-12.521-0.316-22.862-7.77-25.625-18.412-2.257-8.676-3.718-17.519-5.343-26.31-0.442-2.418-1.501-3.797-4.284-4.703-7.935-2.603-15.774-5.431-23.546-8.373-1.043-0.393-1.942-0.611-2.806-0.611-1.063 0-2.071 0.327-3.231 1.073-7.438 4.769-15.01 9.376-22.59 13.978-6.06 3.681-12.187 5.515-18.171 5.515-7.383 0-14.545-2.796-21.082-8.37a2140.76 2140.76 0 0 1-25.977-22.496c-11.734-10.327-12.741-22.436-2.975-34.333 5.021-6.108 9.979-12.257 15.221-18.219 1.925-2.19 1.825-3.85 0.545-6.251-3.548-6.677-6.894-13.442-9.878-20.321-1.11-2.559-2.693-3.604-5.616-3.998-9.13-1.239-18.233-2.646-27.347-3.973-8.859-1.292-15.998-4.977-20.613-11.724-1.795-2.618-2.812-5.632-4.185-8.468v-43.458c0.314-0.558 0.727-1.101 0.918-1.691 3.467-10.545 11.722-16.481 23.939-18.411 9.093-1.438 18.245-2.538 27.308-4.076 1.622-0.271 3.577-1.702 4.254-3.03 3.729-7.306 7.196-14.71 10.481-22.165 0.556-1.255 0.344-3.298-0.514-4.4-5.332-6.844-11.037-13.478-16.471-20.27-9.122-11.404-8.004-23.528 3.153-33.393 8.77-7.75 17.661-15.407 26.622-22.993 6.443-5.46 13.576-8.197 20.918-8.197 6.063 0 12.267 1.866 18.344 5.605 7.166 4.415 14.346 8.826 21.37 13.408 1.349 0.882 2.526 1.326 3.82 1.326 0.909 0 1.875-0.219 2.994-0.663a472.973 472.973 0 0 1 24.242-8.88c2.609-0.871 3.737-2.033 4.151-4.32 1.432-7.908 2.499-15.904 4.759-23.63 1.42-4.846 4.133-9.603 7.316-13.81 3.561-4.688 9.91-6.304 15.806-8.12h50.18c0.654 0.263 1.29 0.613 1.976 0.779 11.984 2.933 18.938 9.874 21.227 20.329 1.717 7.858 3.179 15.767 4.557 23.685 0.403 2.32 1.453 3.5 4.095 4.372 8.758 2.881 17.326 6.208 26.086 9.105 0.623 0.208 1.4 0.311 2.19 0.311 1.214 0 2.471-0.242 3.293-0.721 7.561-4.375 14.88-9.062 22.315-13.609 6.173-3.773 12.394-5.655 18.452-5.655 7.419 0 14.596 2.818 21.164 8.438a3097.157 3097.157 0 0 1 25.643 22.225c11.953 10.468 13.022 22.505 3.114 34.621-5.172 6.33-10.523 12.555-15.501 18.989-0.93 1.195-1.148 3.401-0.556 4.763 3.235 7.342 6.984 14.518 10.231 21.858 0.959 2.174 2.357 2.986 4.788 3.327 9.122 1.256 18.354 2.201 27.307 4.103 5.335 1.138 10.607 3.339 15.215 5.975z m-15.956 21.046c-0.011-3.698-1.599-4.983-5.495-5.48-11.649-1.502-23.232-3.407-34.877-4.978-7.025-0.951-10.644-4.444-13.063-10.162-4.507-10.625-9.493-21.134-15.051-31.373-1.478-2.721-2.304-5.231-2.304-7.67-0.003-2.764 1.053-5.432 3.414-8.199 7.006-8.206 13.609-16.683 20.593-24.905 1.017-1.192 1.522-2.206 1.529-3.168 0.007-1.161-0.719-2.246-2.175-3.468-8.254-6.931-16.42-13.949-24.383-21.124-1.603-1.387-2.771-1.977-4.015-2.016-1.441 0.085-2.48 0.493-3.681 1.234-9.834 6.36-19.651 12.263-29.289 18.363-2.888 1.83-5.825 2.827-8.831 2.887-2.796-0.032-5.118-0.612-7.489-1.778a180.204 180.204 0 0 0-39.594-14.088c-6.08-1.398-9.575-4.862-10.594-10.31-1.946-10.328-4.214-20.611-5.979-30.962-0.564-3.325-2.124-4.38-5.644-4.41-3.418 0.048-6.341 0.087-9.268 0.112-2.739 0.025-5.484 0.039-8.227 0.04a776.97 776.97 0 0 1-17.051-0.168c-3.799 0.031-5.313 1.056-6.048 3.357-2.036 11.046-4.253 20.682-5.835 30.397-1.109 6.792-5.071 10.598-12.601 12.964-12.146 3.816-24.05 8.277-35.742 13.041-2.991 1.224-5.774 1.911-8.473 1.953-3.455-0.052-6.26-0.863-9.128-2.567-10.188-6.516-19.947-12.26-29.452-18.308-2.128-1.077-2.711-1.224-3.274-1.251-1.484 0.069-2.483 0.55-3.587 1.458-8.479 7.56-16.707 14.71-25.093 21.703-1.497 1.248-2.191 2.335-2.201 3.465-0.008 1.063 0.588 2.16 1.697 3.457 6.996 8.215 13.588 16.69 20.604 24.897 2.36 2.759 3.434 5.419 3.454 8.18 0.018 2.435-0.785 4.946-2.245 7.672-5.393 10.031-10.373 20.278-14.495 30.746-2.601 6.592-6.814 10.152-14.688 11.13-11.359 1.414-22.661 3.273-34.009 4.776-3.586 0.474-4.784 1.904-4.8 4.899 0.107 5.27 0.168 10.247 0.172 15.23a585.75 585.75 0 0 1-0.179 14.937c0.021 3.598 1.628 4.721 5.291 5.21 11.793 1.582 23.516 3.563 35.312 5.115 7.095 0.944 11.229 4.331 13.032 10.154 3.456 11.173 8.669 21.711 15.412 31.671 1.672 2.468 2.479 4.841 2.465 7.17-0.02 2.811-1.236 5.552-3.585 8.314-6.904 8.13-13.445 16.474-20.371 24.573-1.109 1.304-1.697 2.409-1.68 3.477 0.018 1.138 0.722 2.229 2.213 3.473 8.287 6.905 16.441 13.933 24.384 21.127 1.359 1.2 2.447 1.771 3.545 1.899 1.655-0.071 2.369-0.311 3.143-0.692 0.371-0.183 0.755-0.398 1.156-0.649a1035.88 1035.88 0 0 1 29.33-18.063c2.732-1.613 6.018-2.514 9.083-3.753 3.274 1.107 6.027 2.009 8.739 2.967 11.561 4.113 22.932 8.715 34.735 12.197 7.671 2.268 11.561 6.074 12.671 12.841 1.625 9.845 3.738 19.633 5.481 29.461 0.087 0.48 0.198 0.913 0.336 1.309 0.642 1.805 1.906 2.694 4.379 2.816 3.847-0.027 6.855-0.063 9.864-0.088a1107.318 1107.318 0 0 1 16.773-0.007c3.052 0.027 6.101 0.067 9.15 0.126 4.226-0.045 5.436-1.566 5.985-4.626 1.837-10.206 4.002-20.377 5.866-30.582 1.079-5.944 5.108-8.964 11.501-11.015 12.396-3.991 24.665-8.355 36.65-13.184 3.551-1.313 5.867-1.834 8.116-1.901 3.657 0.094 6.146 0.791 8.685 2.204 10.751 6.805 20.607 12.636 30.233 18.755 2.014 1.027 2.596 1.186 3.159 1.226 1.536-0.026 2.59-0.526 3.748-1.482a1173.43 1173.43 0 0 1 25.077-21.718c1.45-1.225 2.176-2.308 2.172-3.47-0.005-0.964-0.513-1.977-1.527-3.175-6.983-8.222-13.588-16.69-20.583-24.913-2.346-2.76-3.418-5.423-3.433-8.188-0.013-2.438 0.796-4.953 2.273-7.684 5.565-10.241 10.634-20.725 15.05-31.383 2.541-6.128 6.674-9.411 13.92-10.362 11.502-1.508 22.951-3.325 34.464-4.81 3.829-0.489 5.176-1.979 5.162-5.213a792.632 792.632 0 0 1-0.154-14.901c0.008-4.908 0.059-9.823 0.175-14.739" fill="#D8C48E"></path><path d="M710.835 461.087a651.264 651.264 0 0 0-0.165 15.076c0.003 4.917 0.057 9.83 0.153 14.745 0.018 3.391-1.33 4.879-5.161 5.37-11.514 1.482-22.962 3.298-34.463 4.81-7.249 0.951-11.381 4.232-13.921 10.36-4.416 10.659-9.484 21.145-15.05 31.382-1.479 2.729-2.286 5.247-2.272 7.687 0.014 2.763 1.086 5.426 3.432 8.187 6.996 8.222 13.6 16.689 20.583 24.912 1.016 1.195 1.521 2.211 1.526 3.174 0.005 1.162-0.721 2.245-2.172 3.47a1130.385 1130.385 0 0 0-24.706 21.396c-1.528 1.274-2.583 1.777-3.702 1.812-0.979-0.051-1.562-0.205-2.188-0.479-11.014-6.875-20.872-12.707-30.488-18.835-3.673-2.09-6.159-2.786-8.713-2.88-3.355 0.068-5.67 0.589-8.126 1.481-13.079 5.248-25.35 9.611-37.745 13.604-6.393 2.051-10.423 5.07-11.502 11.016-1.865 10.204-4.032 20.375-5.866 30.58-0.552 3.061-1.763 4.581-5.509 4.629-3.528-0.061-6.577-0.102-9.629-0.126a893.8 893.8 0 0 0-7.323-0.031 1265.065 1265.065 0 0 0-18.474 0.137c-3.313-0.137-4.579-1.025-5.221-2.829a8.354 8.354 0 0 1-0.333-1.307c-1.743-9.83-3.86-19.618-5.483-29.463-1.109-6.767-5.001-10.572-12.672-12.842-11.803-3.482-23.173-8.082-34.734-12.195-2.714-0.96-5.465-1.859-8.741-2.967-3.063 1.24-6.351 2.138-9.082 3.753a1027.362 1027.362 0 0 0-29.192 17.976c-0.54 0.339-0.925 0.555-1.297 0.738-0.77 0.382-1.485 0.618-2.179 0.693-2.059-0.132-3.147-0.701-4.371-1.781-8.08-7.316-16.233-14.342-24.521-21.248-1.491-1.244-2.195-2.336-2.213-3.473-0.02-1.067 0.571-2.174 1.68-3.478 6.924-8.098 13.466-16.443 20.371-24.571 2.348-2.766 3.566-5.508 3.583-8.315 0.017-2.33-0.792-4.702-2.465-7.17-6.743-9.961-11.955-20.498-15.413-31.67-1.806-5.823-5.938-9.209-13.035-10.154-11.793-1.553-23.518-3.534-35.311-5.114-3.662-0.49-5.271-1.61-5.295-4.888 0.128-5.298 0.184-10.28 0.182-15.258a721.83 721.83 0 0 0-0.169-14.938c0.015-3.29 1.214-4.721 4.799-5.193 11.349-1.502 22.649-3.362 34.01-4.775 7.873-0.978 12.086-4.539 14.688-11.13 4.122-10.466 9.103-20.714 14.495-30.745 1.459-2.726 2.263-5.238 2.244-7.673-0.019-2.76-1.091-5.421-3.454-8.18-7.016-8.206-13.608-16.683-20.604-24.897-1.108-1.296-1.706-2.395-1.698-3.457 0.008-1.129 0.704-2.219 2.201-3.467 8.386-6.991 16.611-14.142 24.727-21.386 1.469-1.225 2.47-1.706 3.512-1.771 1.005 0.026 1.587 0.172 2.209 0.437 11.01 6.861 20.768 12.604 30.244 18.681 3.583 2.143 6.389 2.955 9.278 3.007 3.265-0.041 6.046-0.729 9.036-1.952 11.692-4.766 23.597-9.227 35.744-13.041 7.529-2.366 11.491-6.173 12.6-12.966 1.582-9.714 3.801-19.352 5.514-29.061 1.057-3.641 2.569-4.662 5.787-4.698 5.941 0.121 11.308 0.171 16.674 0.172a1068.32 1068.32 0 0 0 17.959-0.151c4.017 0.029 5.572 1.086 6.139 4.408 1.768 10.354 4.033 20.636 5.98 30.963 1.019 5.448 4.517 8.912 10.593 10.309a180.136 180.136 0 0 1 39.594 14.09c2.37 1.166 4.694 1.743 6.979 1.779 3.517-0.062 6.452-1.06 9.343-2.888 9.636-6.101 19.453-12.004 29.021-18.193 1.469-0.911 2.505-1.318 3.488-1.393 1.702 0.029 2.874 0.619 4.197 1.762 8.239 7.421 16.403 14.438 24.661 21.369 1.453 1.222 2.18 2.306 2.173 3.468-0.006 0.963-0.516 1.977-1.529 3.168-6.984 8.223-13.587 16.7-20.592 24.904-2.363 2.771-3.418 5.439-3.416 8.199 0.003 2.439 0.829 4.951 2.306 7.671 5.556 10.239 10.544 20.749 15.05 31.373 2.421 5.718 6.037 9.211 13.064 10.163 11.641 1.571 23.225 3.474 34.875 4.977 3.901 0.491 5.489 1.776 5.501 5.141zM507.578 561.761c54.164-0.146 98.494-38.741 98.424-85.674-0.062-47.228-44.223-85.499-98.866-85.682-54.536 0.146-98.329 38.006-98.989 84.971-0.004 0.183-0.005 0.366-0.006 0.552l-0.001 0.555c0.023 46.824 43.933 84.868 98.584 85.277l0.854 0.001" fill="#F6F1DD"></path><path d="M691.813 587.108v16.801c0 6.342-3.122 12.501-9.354 18.023-8.771 7.772-17.621 15.471-26.611 23.039-6.368 5.361-13.427 8.044-20.694 8.044-6.03 0-12.206-1.846-18.253-5.538-7.439-4.55-14.889-9.089-22.196-13.784-1.143-0.733-2.144-1.059-3.191-1.059-0.876 0-1.785 0.226-2.845 0.628a596.315 596.315 0 0 1-24.354 8.713c-2.711 0.893-4 2.097-4.436 4.595-1.37 7.916-2.941 15.809-4.535 23.698-2.479 12.23-12.992 20.848-26.793 21.188a866.735 866.735 0 0 1-43.443-0.016c-12.521-0.316-22.862-7.77-25.625-18.411-2.258-8.678-3.718-17.52-5.343-26.311-0.442-2.417-1.501-3.797-4.284-4.703-7.935-2.602-15.774-5.432-23.547-8.373-1.041-0.393-1.941-0.611-2.805-0.611-1.063 0-2.071 0.328-3.231 1.073-7.438 4.769-15.01 9.377-22.589 13.977-6.061 3.682-12.188 5.516-18.172 5.516-7.383 0-14.545-2.796-21.082-8.37a2149.522 2149.522 0 0 1-25.977-22.495c-6.409-5.642-9.62-11.814-9.62-18.194v-16.8c0 6.379 3.209 12.554 9.62 18.193a2091.476 2091.476 0 0 0 25.977 22.496c6.537 5.572 13.699 8.37 21.082 8.37 5.983 0 12.111-1.835 18.172-5.516 7.579-4.601 15.147-9.208 22.589-13.977 1.161-0.745 2.169-1.073 3.231-1.073 0.864 0 1.764 0.219 2.805 0.611 7.771 2.942 15.613 5.771 23.547 8.373 2.783 0.906 3.84 2.287 4.284 4.703 1.625 8.791 3.087 17.632 5.343 26.311 2.763 10.644 13.104 18.097 25.625 18.411a870.793 870.793 0 0 0 43.443 0.016c13.799-0.342 24.313-8.957 26.793-21.188 1.594-7.891 3.166-15.781 4.535-23.698 0.436-2.498 1.724-3.704 4.436-4.595a592.376 592.376 0 0 0 24.354-8.713c1.06-0.405 1.969-0.628 2.845-0.628 1.049 0 2.05 0.323 3.191 1.057 7.311 4.695 14.759 9.235 22.195 13.786 6.048 3.692 12.222 5.538 18.254 5.538 7.27 0 14.326-2.683 20.694-8.045 8.99-7.567 17.842-15.267 26.611-23.038 6.229-5.523 9.354-11.681 9.354-18.024z" fill="#792B1D"></path><path d="M691.813 587.108v16.801c0 0.397-0.013 0.795-0.035 1.192v-16.8c0.022-0.397 0.035-0.793 0.035-1.193M691.775 588.301v16.8c-0.284 4.563-2.193 9.013-5.729 13.183v-16.8c3.536-4.171 5.445-8.622 5.729-13.183" fill="#792B1D"></path><path d="M686.05 601.482v16.8a35.457 35.457 0 0 1-3.592 3.649c-8.771 7.771-17.62 15.471-26.611 23.038a38.366 38.366 0 0 1-4.083 3.016v-16.801a38.771 38.771 0 0 0 4.083-3.015c8.991-7.567 17.843-15.268 26.611-23.038a35.562 35.562 0 0 0 3.592-3.649M651.762 631.187v16.802a33.265 33.265 0 0 1-6.404 3.198v-16.801a33.184 33.184 0 0 0 6.404-3.199M645.356 634.386v16.801a29.686 29.686 0 0 1-6.245 1.561v-16.8a29.627 29.627 0 0 0 6.245-1.562M639.111 635.946v16.8c-1.313 0.181-2.633 0.27-3.961 0.27-6.03 0-12.206-1.845-18.253-5.539-7.439-4.55-14.889-9.089-22.196-13.784-1.143-0.732-2.144-1.058-3.191-1.058-0.249 0-0.497 0.018-0.752 0.052v-16.8c0.255-0.034 0.503-0.052 0.752-0.052 1.049 0 2.051 0.322 3.191 1.057 7.311 4.695 14.759 9.235 22.196 13.785 6.047 3.694 12.221 5.539 18.253 5.539a28.787 28.787 0 0 0 3.961-0.27M590.757 615.888v16.802c-0.597 0.081-1.223 0.254-1.909 0.506v-16.802c0.686-0.251 1.312-0.424 1.909-0.506M588.848 616.396v16.801l-0.185 0.07a632.762 632.762 0 0 1-7.452 2.79v-16.8a644.075 644.075 0 0 0 7.452-2.79c0.062-0.026 0.125-0.048 0.185-0.071M581.211 619.257v16.8a567.49 567.49 0 0 1-16.901 5.923c-0.163 0.055-0.323 0.108-0.479 0.166v-16.801c0.154-0.058 0.315-0.111 0.479-0.167a575.234 575.234 0 0 0 16.901-5.921M563.83 625.344v16.8a8.763 8.763 0 0 0-1.697 0.813v-16.801a8.821 8.821 0 0 1 1.697-0.812M562.133 626.155v16.801c-0.438 0.28-0.813 0.599-1.123 0.964v-16.801a4.955 4.955 0 0 1 1.123-0.964M561.01 627.121v16.8c-0.58 0.686-0.941 1.541-1.137 2.651-1.37 7.916-2.942 15.809-4.535 23.697-0.893 4.399-2.824 8.33-5.571 11.577v-16.8c2.748-3.245 4.682-7.178 5.571-11.577 1.595-7.89 3.167-15.781 4.535-23.699 0.194-1.11 0.557-1.964 1.137-2.649M549.767 665.047v16.8a25.99 25.99 0 0 1-5.835 5.094V670.14a26.055 26.055 0 0 0 5.835-5.093M543.932 670.138v16.802a27.623 27.623 0 0 1-5.38 2.656v-16.799a27.718 27.718 0 0 0 5.38-2.659M538.552 672.799v16.8a30.292 30.292 0 0 1-6.357 1.568v-16.8a30.416 30.416 0 0 0 6.357-1.568M532.193 674.367v16.8a33.064 33.064 0 0 1-3.646 0.291 866.552 866.552 0 0 1-43.443-0.015c-12.521-0.317-22.862-7.771-25.625-18.412-2.258-8.678-3.718-17.52-5.343-26.311-0.442-2.417-1.501-3.797-4.285-4.703-7.934-2.602-15.773-5.432-23.546-8.373-1.042-0.393-1.941-0.611-2.805-0.611-0.226 0-0.447 0.015-0.67 0.044v-16.8c0.223-0.029 0.444-0.044 0.67-0.044 0.864 0 1.764 0.219 2.805 0.611 7.771 2.942 15.613 5.771 23.546 8.373 2.784 0.906 3.841 2.287 4.285 4.703 1.625 8.791 3.086 17.632 5.343 26.31 2.763 10.645 13.104 18.098 25.625 18.412a870.793 870.793 0 0 0 43.443 0.016 33.31 33.31 0 0 0 3.646-0.291M422.829 616.273v16.8c-0.358 0.05-0.716 0.142-1.082 0.272v-16.8a5.361 5.361 0 0 1 1.082-0.272M421.745 616.547v16.8a7.712 7.712 0 0 0-1.458 0.744v-16.8c0.51-0.325 0.99-0.57 1.458-0.744" fill="#792B1D"></path><path d="M420.288 617.291v16.8c-0.007 0.004-0.014 0.008-0.021 0.014-0.27 0.173-0.538 0.346-0.81 0.518v-16.8a100.77 100.77 0 0 0 0.831-0.532" fill="#792B1D"></path><path d="M419.458 617.821v16.8c-7.178 4.582-14.474 9.021-21.779 13.457-2.377 1.443-4.765 2.604-7.149 3.479v-16.8c2.386-0.876 4.772-2.035 7.149-3.479 7.303-4.432 14.601-8.874 21.779-13.457M390.528 634.76v16.8a33.39 33.39 0 0 1-6.971 1.761v-16.802a33.322 33.322 0 0 0 6.971-1.759" fill="#792B1D"></path><path d="M383.557 636.519v16.802a29.9 29.9 0 0 1-4.05 0.274c-7.383 0-14.545-2.796-21.082-8.369a2158.433 2158.433 0 0 1-25.977-22.495c-6.409-5.642-9.619-11.815-9.619-18.194v-16.8c0 6.379 3.208 12.553 9.619 18.193a2091.402 2091.402 0 0 0 25.977 22.495c6.537 5.573 13.699 8.37 21.082 8.37 1.347 0 2.695-0.092 4.05-0.276" fill="#792B1D"></path></svg>