<svg xmlns="http://www.w3.org/2000/svg" width="800px" height="800px" viewBox="0 0 1024 1024" class="icon"><path d="M993.763 493.538v35c0 13.331-6.04 26.664-18.135 37.137-140.149 121.422-280.35 242.795-420.49 364.219-11.813 10.237-25.813 15.501-42.454 15.501v-35c16.644 0 30.641-5.264 42.454-15.501C695.28 773.47 835.474 652.092 975.628 530.677c12.095-10.475 18.135-23.803 18.135-37.139z" fill="#CFA3C6"></path><path d="M30.239 528.367v-3.5-1.75-3.5-3.5-1.75-3.5-3.5-1.75-3.5-3.5-1.75-3.5c0 14.707 6.701 29.313 19.037 40.019 138.449 120.064 277.049 239.996 415.562 360.02 13.002 11.26 28.74 16.466 47.853 16.994v35c-19.108-0.528-34.851-5.734-47.853-16.994C326.325 808.382 187.725 688.45 49.276 568.386c-12.337-10.705-19.037-25.312-19.037-40.019z" fill="#CFA3C6"></path><path d="M510.786 76.601c16.263 0 32.546 5.362 44.946 16.097 139.949 121.188 279.9 242.376 419.818 363.586 24.241 20.995 24.295 53.413 0.079 74.396C835.48 652.101 695.28 773.478 555.141 894.898c-11.814 10.238-25.813 15.502-42.451 15.502-19.109-0.528-34.853-5.734-47.854-16.994C326.324 773.382 187.724 653.45 49.275 533.386c-19.581-16.987-24.96-43.81-11.895-65.251 3.919-6.438 8.669-11.829 14.465-16.849C189.954 331.734 328.024 212.152 466.107 92.567c12.296-10.64 28.478-15.966 44.679-15.966z" fill="#F7E1ED"></path><path d="M669.93 411.339c19.709 0.098 38.001 12.899 39.146 32.871 0.032 0.54 0.048 1.08 0.048 1.619 0.007 16.72-14.604 33.075-38.411 33.919-0.507 0.021-1.017 0.028-1.52 0.028-0.275 0-0.509-0.001-0.738-0.006-19.55-0.31-37.254-13.729-38.224-32.486a26.551 26.551 0 0 1-0.084-2.015c-0.067-16.524 14.644-33.136 38.349-33.908l0.429-0.011c0.333-0.009 0.67-0.011 1.005-0.011z" fill="#EAC9DD"></path><path d="M734.678 445.651v16.8c-0.099 29.531-19.775 47.533-52.214 55.807v-16.799c32.437-8.276 52.114-26.277 52.214-55.808z" fill="#82408B"></path><path d="M734.678 445.651v16.8a64.098 64.098 0 0 1-0.113 3.646v-16.8c0.071-1.194 0.109-2.41 0.113-3.646M734.563 449.297v16.8c-0.713 11.78-4.7 21.611-11.493 29.622v-16.8c6.791-8.012 10.781-17.843 11.493-29.622M723.069 478.919v16.8c-3.567 4.206-7.905 7.911-12.949 11.132v-16.8c5.043-3.221 9.382-6.926 12.949-11.132M710.12 490.05v16.8c-4.792 3.061-10.217 5.686-16.22 7.888v-16.799c6.003-2.204 11.428-4.829 16.22-7.889M693.9 497.938v16.799a117.832 117.832 0 0 1-11.438 3.521v-16.799c4.013-1.025 7.83-2.196 11.438-3.521" fill="#82408B"></path><path d="M656.618 501.589v16.8c-32.8-8.73-51.981-26.843-52.154-57.119v-16.8c0.173 30.276 19.354 48.389 52.154 57.119z" fill="#82408B"></path><path d="M656.618 501.589v16.8c-32.8-8.73-51.981-26.843-52.154-57.119v-16.8c0.173 30.276 19.354 48.389 52.154 57.119" fill="#82408B"></path><path d="M734.678 445.651c-0.099 29.53-19.775 47.532-52.214 55.808v4.539c0 55.739 0.011 111.476-0.01 167.207 0 1.808 0.081 3.667-0.354 5.401-1.289 5.128-6.529 8.644-12.495 8.644-6.233-0.063-11.323-3.647-12.522-8.939-0.424-1.877-0.441-3.849-0.441-5.786-0.022-55.478-0.022-110.953-0.022-166.43v-4.504c-32.8-8.729-51.981-26.843-52.154-57.118-0.139-26.145 16.624-43.142 52.154-54.821v-4.479c0-26.896 0.144-53.791-0.089-80.688-0.052-6.809 2.366-11.785 9.776-14.535h6.271c7.338 2.498 10.049 7.15 9.989 13.933-0.243 27.157-0.103 54.314-0.103 81.473v4.19c32.599 8.301 52.325 26.38 52.214 56.105z m-63.967 34.097c23.806-0.845 38.417-17.199 38.411-33.919 0-0.539-0.016-1.08-0.048-1.619-1.145-19.972-19.437-32.773-38.915-32.87-0.564-0.001-0.899 0.002-1.237 0.011-0.143 0.003-0.286 0.005-0.43 0.011-23.703 0.771-38.414 17.383-38.347 33.908 0.003 0.674 0.029 1.344 0.083 2.015 0.97 18.756 18.675 32.177 38.225 32.486a45.87 45.87 0 0 0 2.258-0.023" fill="#94568E"></path><path d="M682.46 674.678v16.802c0 1.327-0.043 2.66-0.358 3.928-1.288 5.127-6.529 8.645-12.494 8.645-6.234-0.063-11.324-3.648-12.523-8.94-0.424-1.877-0.441-3.85-0.441-5.787v-16.8c0 1.938 0.021 3.909 0.441 5.787 1.199 5.291 6.289 8.878 12.523 8.94 5.965 0 11.206-3.518 12.494-8.645 0.315-1.268 0.358-2.601 0.358-3.93z" fill="#82408B"></path><path d="M682.46 674.678v16.802c0 0.567-0.007 1.137-0.04 1.702v-16.8c0.033-0.565 0.04-1.135 0.04-1.704M682.42 676.382v16.8c-0.045 0.755-0.138 1.5-0.318 2.226a10.292 10.292 0 0 1-2.154 4.146v-16.8a10.218 10.218 0 0 0 2.154-4.146c0.18-0.726 0.271-1.471 0.318-2.226M679.945 682.754l0.001 16.8a11.903 11.903 0 0 1-2.681 2.323v-16.8a11.9 11.9 0 0 0 2.68-2.323" fill="#82408B"></path><path d="M677.267 685.077v16.8a13.53 13.53 0 0 1-2.6 1.285v-16.8a13.53 13.53 0 0 0 2.6-1.285M674.665 686.362v16.8c-0.964 0.353-1.979 0.607-3.033 0.751v-16.801a14.442 14.442 0 0 0 3.033-0.75M671.63 687.112v16.801c-0.661 0.09-1.337 0.137-2.022 0.137-6.234-0.062-11.324-3.647-12.523-8.939-0.424-1.877-0.441-3.85-0.441-5.787v-16.8c0 1.938 0.021 3.909 0.441 5.786 1.199 5.291 6.289 8.879 12.523 8.939 0.685 0 1.362-0.046 2.022-0.137" fill="#82408B"></path><path d="M354.072 428.139a46.45 46.45 0 0 0-1.054 0.023c-0.015-5.601-0.017-11.2-0.017-16.8 0.355-0.011 0.714-0.019 1.069-0.023 0.148-0.003 0.299-0.003 0.501-0.003a48.159 48.159 0 0 1 1.669 0.034c23.27 0.933 38.041 17.416 37.97 33.82v16.8c0.071-16.403-14.7-32.889-37.97-33.82-0.283-0.011-0.564-0.02-0.847-0.024-0.319-0.006-0.571-0.01-0.822-0.01-0.198 0-0.35 0-0.499 0.003z" fill="#82408B"></path><path d="M394.214 445.189v16.8c0.071-16.403-14.7-32.889-37.969-33.82a48.35 48.35 0 0 0-0.846-0.025c-0.32-0.005-0.572-0.009-0.823-0.009l-0.502 0.001c-1.865 0.02-3.727 0.157-5.565 0.407v-16.8c1.84-0.25 3.701-0.389 5.565-0.408l0.502-0.001a43.579 43.579 0 0 1 1.669 0.034c23.269 0.933 38.04 17.416 37.969 33.821" fill="#82408B"></path><path d="M315.3 460.669a27.527 27.527 0 0 0-0.066 1.925v-16.8c0-0.643 0.021-1.285 0.066-1.925 1.362-19.523 19.12-31.869 37.703-32.508 0 5.6 0.001 11.201 0.017 16.8-18.59 0.632-36.358 12.981-37.72 32.508z" fill="#82408B"></path><path d="M394.214 445.189v16.8c0.071-16.403-14.7-32.889-37.969-33.82a48.35 48.35 0 0 0-0.846-0.025c-0.32-0.005-0.572-0.009-0.823-0.009l-0.502 0.001c-1.865 0.02-3.727 0.157-5.565 0.407v-16.8c1.84-0.25 3.701-0.389 5.565-0.408l0.502-0.001a43.579 43.579 0 0 1 1.669 0.034c23.269 0.933 38.04 17.416 37.969 33.821M348.506 411.746v16.8a44.339 44.339 0 0 0-9.271 2.302v-16.8a44.354 44.354 0 0 1 9.271-2.302" fill="#82408B"></path><path d="M339.235 414.048v16.8a41.504 41.504 0 0 0-8.068 3.985v-16.8a41.702 41.702 0 0 1 8.068-3.985M331.166 418.034v16.8c-3.121 1.995-5.929 4.408-8.286 7.198v-16.8c2.357-2.789 5.165-5.203 8.286-7.198M322.88 425.232v16.8c-4.271 5.053-7.071 11.345-7.58 18.637l-0.018 0.264v-16.8c0.005-0.089 0.011-0.175 0.018-0.264 0.509-7.292 3.307-13.584 7.58-18.637M315.282 444.133v16.8a28.003 28.003 0 0 0-0.049 1.663v-16.8c0-0.555 0.017-1.11 0.049-1.663" fill="#82408B"></path><path d="M315.233 462.596v-16.8 16.8z" fill="#82408B"></path><path d="M315.233 445.863v16.733-16.8 0.067" fill="#82408B"></path><path d="M353.271 479.739v16.8c-23.684-1.041-38.002-17.508-38.037-33.876v-16.8c0.036 16.368 14.354 32.836 38.037 33.876z" fill="#82408B"></path><path d="M353.271 479.739v16.8c-23.684-1.041-38.002-17.508-38.037-33.876v-16.8c0.036 16.368 14.354 32.836 38.037 33.876" fill="#82408B"></path><path d="M394.097 447.605v16.8c-1.135 18.728-19.178 31.966-38.501 32.173l-0.458 0.001v-16.8l0.458-0.001c19.323-0.208 37.366-13.445 38.501-32.173z" fill="#82408B"></path><path d="M394.097 447.605v16.8c-0.42 6.939-3.163 13.124-7.43 18.171v-16.8c4.267-5.047 7.01-11.233 7.43-18.171M386.667 465.776v16.8c-2.38 2.815-5.236 5.278-8.429 7.319v-16.8c3.193-2.04 6.049-4.503 8.429-7.319M378.238 473.096v16.8a42.004 42.004 0 0 1-8.114 4.014v-16.8a41.89 41.89 0 0 0 8.114-4.014M370.123 477.109v16.8a43.598 43.598 0 0 1-9.139 2.271v-16.8a43.474 43.474 0 0 0 9.139-2.271M360.984 479.382v16.8a43.517 43.517 0 0 1-5.392 0.396l-0.458 0.001v-16.8l0.458-0.001a43.31 43.31 0 0 0 5.392-0.396" fill="#82408B"></path><path d="M355.137 479.78v16.8a42.627 42.627 0 0 1-1.865-0.041v-16.8c0.603 0.026 1.205 0.04 1.865 0.041z" fill="#82408B"></path><path d="M355.137 479.78v16.8a42.627 42.627 0 0 1-1.865-0.041v-16.8c0.603 0.026 1.205 0.04 1.865 0.041" fill="#82408B"></path><path d="M354.521 411.334c0.307 0 0.557 0.004 0.809 0.008 0.351 0.007 0.633 0.015 0.916 0.026 23.27 0.933 38.041 17.416 37.969 33.818a26.77 26.77 0 0 1-0.118 2.418c-1.135 18.728-19.177 31.966-38.501 32.172l-0.458 0.001a44.128 44.128 0 0 1-1.864-0.041c-23.685-1.041-38.004-17.509-38.038-33.876 0-0.665 0.021-1.331 0.066-1.994 1.39-19.896 19.81-32.339 38.773-32.531 0.146 0.001 0.298-0.001 0.446-0.001z" fill="#EAC9DD"></path><path d="M341.9 501.423v16.8c-36.408-7.654-52.799-33.792-52.577-56.166v-16.8c-0.221 22.374 16.17 48.511 52.577 56.166z" fill="#82408B"></path><path d="M341.9 501.423v16.8c-36.408-7.654-52.799-33.792-52.577-56.166v-16.8c-0.221 22.374 16.17 48.511 52.577 56.166" fill="#82408B"></path><path d="M420.102 443.993v16.8c0 3.011-0.261 6.107-0.786 9.286-4.022 24.295-20.835 39.974-48.082 46.894-3.387 0.864-3.53 2.352-3.53 4.698v-16.8c0-2.349 0.142-3.833 3.53-4.697 27.245-6.921 44.059-22.6 48.082-46.895 0.525-3.179 0.786-6.276 0.786-9.286z" fill="#82408B"></path><path d="M420.102 443.993v16.8c0 1.079-0.032 2.167-0.101 3.267v-16.8c0.068-1.1 0.101-2.189 0.101-3.267" fill="#82408B"></path><path d="M420.002 447.26v16.8a58.358 58.358 0 0 1-0.687 6.021c-1.695 10.241-5.664 18.952-11.73 26.12v-16.8c6.066-7.168 10.035-15.878 11.73-26.12a58.42 58.42 0 0 0 0.687-6.021M407.585 479.401v16.8c-3.501 4.138-7.703 7.764-12.568 10.876v-16.802c4.865-3.109 9.067-6.735 12.568-10.874M395.017 490.275v16.801c-4.259 2.719-9.028 5.045-14.283 6.974v-16.8c5.254-1.928 10.021-4.254 14.283-6.975M380.732 497.251v16.8a96.78 96.78 0 0 1-9.498 2.923 10.1 10.1 0 0 0-0.984 0.303v-16.801c0.292-0.107 0.619-0.208 0.984-0.302a95.828 95.828 0 0 0 9.498-2.923M370.25 500.475v16.801a5.278 5.278 0 0 0-1.077 0.516v-16.8a5.639 5.639 0 0 1 1.077-0.517" fill="#82408B"></path><path d="M369.175 500.992v16.8a3.115 3.115 0 0 0-0.726 0.623v-16.799c0.189-0.226 0.428-0.434 0.726-0.624M368.449 501.616v16.799c-0.504 0.6-0.667 1.326-0.721 2.2v-16.8c0.054-0.873 0.217-1.601 0.721-2.199" fill="#82408B"></path><path d="M367.729 503.815v16.8c-0.021 0.331-0.024 0.683-0.024 1.057v-16.8c0.001-0.374 0.003-0.726 0.024-1.057" fill="#82408B"></path><path d="M341.885 691.411v-16.8c0 0.803 0.021 1.604 0.098 2.396 0.573 5.562 5.666 9.813 12.859 10.191V704c-7.193-0.38-12.286-4.632-12.859-10.19a23.945 23.945 0 0 1-0.098-2.399z" fill="#82408B"></path><path d="M354.842 687.2V704c-7.193-0.38-12.286-4.632-12.859-10.19a24.54 24.54 0 0 1-0.098-2.397v-16.8c0 0.803 0.021 1.604 0.098 2.396 0.573 5.56 5.662 9.811 12.859 10.191" fill="#82408B"></path><path d="M390.446 398.293c22.458 13.094 32.7 31.836 28.869 54.986-4.022 24.295-20.834 39.974-48.081 46.895-3.388 0.864-3.53 2.351-3.53 4.697 0.041 55.851 0.041 111.704 0.011 167.554 0 2.062-0.051 4.166-0.555 6.162-1.271 5.078-6.528 8.612-12.32 8.612-7.195-0.381-12.286-4.633-12.859-10.191-0.15-1.535-0.081-3.098-0.081-4.651V505.961v-4.539c-36.408-7.655-52.799-33.792-52.577-56.166 0.252-25.23 19.797-48.955 52.577-55.484v-4.052c0-27.279 0.131-54.568-0.102-81.84-0.06-6.783 2.652-11.435 9.979-13.933h6.279c7.399 2.75 9.83 7.727 9.778 14.526-0.231 26.896-0.101 53.784-0.101 80.678v3.71c8.076 3.294 16.04 5.538 22.713 9.432z m3.651 49.312a26.8 26.8 0 0 0 0.117-2.417c0.071-16.403-14.7-32.889-37.969-33.82a40.211 40.211 0 0 0-1.669-0.034l-0.502 0.001c-18.965 0.193-37.383 12.636-38.772 32.532a28.868 28.868 0 0 0-0.066 1.994c0.036 16.368 14.354 32.835 38.038 33.876 0.603 0.026 1.205 0.04 1.807 0.041l0.516-0.001c19.323-0.205 37.363-13.443 38.5-32.172" fill="#94568E"></path><path d="M367.717 672.427v16.8c0 2.062-0.051 4.166-0.555 6.162-1.271 5.077-6.528 8.611-12.32 8.611v-16.8c5.792 0 11.048-3.534 12.32-8.612 0.504-1.997 0.555-4.103 0.555-6.161z" fill="#82408B"></path><path d="M367.717 672.427v16.8c0 0.912-0.011 1.837-0.063 2.753v-16.801c0.052-0.918 0.063-1.841 0.063-2.752M367.652 675.179v16.801c-0.07 1.15-0.209 2.298-0.491 3.41-0.384 1.534-1.131 2.926-2.146 4.122v-16.8c1.018-1.198 1.763-2.59 2.146-4.122 0.282-1.114 0.42-2.26 0.491-3.411M365.014 682.71v16.801a12.092 12.092 0 0 1-2.699 2.342v-16.8a12.17 12.17 0 0 0 2.699-2.343M362.313 685.053v16.8c-0.804 0.515-1.678 0.946-2.599 1.285v-16.8a13.406 13.406 0 0 0 2.599-1.285M359.714 686.338v16.8c-0.938 0.347-1.93 0.596-2.952 0.731v-16.8a13.832 13.832 0 0 0 2.952-0.731" fill="#82408B"></path><path d="M356.763 687.07v16.8c-0.632 0.088-1.272 0.132-1.922 0.132v-16.801a14.396 14.396 0 0 0 1.922-0.131" fill="#82408B"></path><path d="M552.191 539.298v16.629c-0.093-18.813-16.729-33.675-39.111-34.178a41.015 41.015 0 0 0-0.496-0.007c-0.166-0.002-0.331-0.005-0.494-0.005-0.165 0-0.329 0.003-0.495 0.005-20.694 0.229-37.981 14.95-38.466 33.448-0.002 0.146-0.007 0.294-0.007 0.438-0.002 0.119-0.002 0.236-0.002 0.354v-16.801c0-0.117 0-0.233 0.002-0.354 0-0.146 0.004-0.293 0.007-0.439 0.483-18.498 17.771-33.217 38.466-33.448 0.164-0.001 0.328-0.004 0.495-0.004 0.163 0 0.328 0.002 0.494 0.004 0.165 0.001 0.331 0.005 0.496 0.008 22.381 0.503 39.019 15.366 39.111 34.178v0.172z" fill="#82408B"></path><path d="M552.191 539.298v16.629c-0.093-18.813-16.729-33.675-39.111-34.178a41.015 41.015 0 0 0-0.496-0.007c-0.166-0.002-0.331-0.005-0.494-0.005-0.165 0-0.329 0.003-0.495 0.005a43.709 43.709 0 0 0-5.425 0.396v-16.8a43.503 43.503 0 0 1 5.425-0.396c0.164-0.001 0.328-0.005 0.495-0.005 0.163 0 0.328 0.003 0.494 0.005 0.165 0.001 0.331 0.004 0.496 0.007 22.381 0.503 39.019 15.366 39.111 34.178v0.171M506.17 505.338v16.8a43.048 43.048 0 0 0-8.989 2.229v-16.8a43.001 43.001 0 0 1 8.989-2.229M497.181 507.568v16.8a41.024 41.024 0 0 0-7.927 3.921v-16.8a40.967 40.967 0 0 1 7.927-3.921M489.253 511.489v16.8c-3.213 2.054-6.065 4.527-8.444 7.331v-16.8c2.379-2.804 5.231-5.279 8.444-7.331" fill="#82408B"></path><path d="M480.809 518.82v16.8c-4.408 5.201-7.19 11.539-7.629 18.443v-16.8c0.438-6.904 3.22-13.242 7.629-18.443M473.18 537.265v16.801c-0.022 0.374-0.04 0.748-0.049 1.124l-0.008 0.439v0.354-16.802-0.354l0.008-0.44c0.01-0.374 0.026-0.75 0.049-1.122" fill="#82408B"></path><path d="M552.192 539.288v16.8c0 0.095-0.001 0.189-0.003 0.283-0.157 18.695-17.579 33.489-38.478 33.835-0.249 0.005-0.495 0.006-0.743 0.006v-16.8c0.248 0 0.494-0.002 0.743-0.006 20.899-0.347 38.319-15.141 38.478-33.835 0.002-0.094 0.003-0.188 0.003-0.283z" fill="#82408B"></path><path d="M552.192 539.288v16.8a30.157 30.157 0 0 1-0.06 1.878v-16.801a30.08 30.08 0 0 0 0.06-1.877" fill="#82408B"></path><path d="M552.134 541.165v16.801c-0.421 6.868-3.179 13.154-7.558 18.317v-16.8c4.379-5.163 7.137-11.449 7.558-18.318M544.576 559.483v16.8c-2.367 2.789-5.209 5.25-8.412 7.297v-16.801c3.203-2.046 6.044-4.507 8.412-7.296M536.164 566.779v16.801a41.555 41.555 0 0 1-8.001 3.956v-16.8a41.443 41.443 0 0 0 8.001-3.957M528.163 570.736v16.8a43.71 43.71 0 0 1-9.153 2.269v-16.8a43.586 43.586 0 0 0 9.153-2.269M519.01 573.005v16.8a44.63 44.63 0 0 1-6.04 0.407v-16.8a44.875 44.875 0 0 0 6.04-0.407" fill="#82408B"></path><path d="M512.968 573.412v16.8c-0.246 0-0.489-0.001-0.734-0.006-21.975-0.355-39.063-15.259-39.112-34.13v-16.8c0.048 18.869 17.139 33.773 39.112 34.13 0.245 0.004 0.49 0.006 0.734 0.006z" fill="#82408B"></path><path d="M512.968 573.412v16.8c-0.246 0-0.489-0.001-0.734-0.006-21.975-0.355-39.063-15.259-39.112-34.13v-16.8c0.048 18.869 17.139 33.773 39.112 34.13 0.245 0.004 0.49 0.006 0.734 0.006" fill="#82408B"></path><path d="M577.923 540.982v16.8c0 22.241-17.723 46.651-52.323 54.046v-16.8c34.6-7.393 52.323-31.804 52.323-54.046z" fill="#82408B"></path><path d="M577.923 540.982v16.8c0 0.842-0.023 1.686-0.076 2.533v-16.801c0.051-0.846 0.076-1.69 0.076-2.532M577.847 543.516v16.801c-0.592 9.907-4.653 20.101-12.109 28.908v-16.8c7.454-8.809 11.517-19.001 12.109-28.909M565.736 572.425v16.8c-3.802 4.491-8.485 8.623-14.041 12.176V584.6c5.556-3.552 10.241-7.684 14.041-12.175" fill="#82408B"></path><path d="M551.695 584.6v16.8c-4.267 2.725-9.046 5.108-14.335 7.054v-16.8c5.289-1.944 10.07-4.328 14.335-7.054M537.358 591.653v16.8a86.455 86.455 0 0 1-11.76 3.375v-16.8a86.148 86.148 0 0 0 11.76-3.375" fill="#82408B"></path><path d="M499.754 598.202v16.8c0-2.221-0.312-3.516-3.446-4.22-29.152-6.591-49.181-29.186-49.02-54.962v-16.8c-0.161 25.775 19.867 48.37 49.02 54.962 3.134 0.705 3.446 1.999 3.446 4.22z" fill="#82408B"></path><path d="M499.754 598.202v16.8c0-2.221-0.312-3.516-3.446-4.22-29.152-6.591-49.181-29.186-49.02-54.962v-16.8c-0.161 25.775 19.867 48.37 49.02 54.962 3.134 0.705 3.446 1.999 3.446 4.22" fill="#82408B"></path><path d="M525.6 595.028v3.992c0 25.087-0.04 50.178 0.021 75.266 0.021 5.402-1.996 9.708-7.923 11.958a14.542 14.542 0 0 1-5.205 0.973c-6.62 0-12.396-4.658-12.718-11.309-0.222-4.775-0.05-9.567-0.05-14.352-0.011-21.084-0.029-42.163 0.03-63.245 0.008-2.288-0.262-3.614-3.447-4.33-29.151-6.591-49.18-29.186-49.019-54.961 0.152-25.841 19.838-47.812 48.969-54.656 0.988-0.235 1.985-0.488 3.458-0.863v-4.889c0-58.07 0.071-116.137-0.09-174.207-0.008-6.827 2.38-11.784 9.869-14.457h6.28c7.52 2.627 9.938 7.568 9.919 14.405-0.161 58.069-0.09 116.147-0.09 174.216v4.626c32.84 8.519 51.688 26.772 52.314 56.927 0.459 22.469-17.272 47.418-52.318 54.906z m-11.887-21.622c20.901-0.345 38.319-15.14 38.478-33.835 0.003-0.149 0.003-0.297 0.002-0.444-0.093-18.813-16.729-33.675-39.112-34.178l-0.495-0.007c-0.166-0.001-0.331-0.004-0.494-0.004-0.165 0-0.329 0.002-0.495 0.004-20.694 0.23-37.981 14.949-38.466 33.446-0.004 0.147-0.007 0.295-0.008 0.44l-0.001 0.447c0.049 18.869 17.14 33.773 39.113 34.13a44.871 44.871 0 0 0 1.478 0.001" fill="#94568E"></path><path d="M512.09 504.938c0.166 0 0.327 0.002 0.494 0.004 0.165 0.001 0.331 0.004 0.496 0.007 22.382 0.503 39.019 15.367 39.111 34.178 0.001 0.147 0.001 0.295-0.002 0.444-0.157 18.694-17.579 33.488-38.478 33.835a46.102 46.102 0 0 1-1.478 0c-21.974-0.355-39.063-15.259-39.113-34.13 0-0.149 0-0.3 0.002-0.447 0.001-0.146 0.004-0.294 0.008-0.439 0.481-18.496 17.771-33.217 38.464-33.447 0.167-0.003 0.331-0.005 0.496-0.005z" fill="#EAC9DD"></path><path d="M499.66 687.078v-16.8c0 1.88 0.027 3.757 0.114 5.63 0.32 6.649 6.098 11.309 12.718 11.309 1.706 0 3.467-0.31 5.204-0.973 5.927-2.25 7.942-6.556 7.925-11.958v16.8c0.019 5.403-1.998 9.708-7.925 11.959a14.553 14.553 0 0 1-5.204 0.972c-6.62 0-12.396-4.657-12.718-11.308a122.79 122.79 0 0 1-0.114-5.631z" fill="#82408B"></path><path d="M525.62 674.286v16.8c0 0.428-0.011 0.846-0.033 1.261v-16.801c0.022-0.414 0.033-0.832 0.033-1.26M525.586 675.546v16.801c-0.167 2.761-0.943 5.195-2.607 7.157v-16.801c1.664-1.962 2.44-4.396 2.607-7.157M522.979 682.703v16.801a11.062 11.062 0 0 1-2.505 2.167V684.87a11.052 11.052 0 0 0 2.505-2.167M520.474 684.87v16.801c-0.812 0.519-1.731 0.979-2.775 1.372-0.056 0.023-0.111 0.043-0.168 0.064v-16.801l0.168-0.063a14.918 14.918 0 0 0 2.775-1.373M517.527 686.309v16.801a14.768 14.768 0 0 1-3.103 0.777v-16.8a15.021 15.021 0 0 0 3.103-0.778" fill="#82408B"></path><path d="M514.426 687.085v16.801c-0.651 0.087-1.298 0.131-1.935 0.131-6.62 0-12.396-4.657-12.718-11.308a120.004 120.004 0 0 1-0.114-5.631v-16.8c0 1.88 0.026 3.757 0.114 5.63 0.32 6.649 6.098 11.309 12.718 11.309 0.638 0 1.283-0.044 1.935-0.132" fill="#82408B"></path></svg>