<svg xmlns="http://www.w3.org/2000/svg" width="800px" height="800px" viewBox="0 0 1024 1024" class="icon"><path d="M993.763 493.538v35c0 13.331-6.04 26.664-18.135 37.137-140.15 121.422-280.35 242.795-420.49 364.219-11.814 10.237-25.813 15.501-42.454 15.501v-35c16.643 0 30.64-5.264 42.454-15.501 140.141-121.424 280.336-242.802 420.49-364.217 12.095-10.475 18.135-23.803 18.135-37.139z" fill="#E1C237"></path><path d="M30.239 528.367v-3.5-1.75-3.5-3.5-1.75-3.5-3.5-1.75-3.5-3.5-1.75-3.5c0 14.707 6.701 29.313 19.037 40.019 138.449 120.064 277.049 239.996 415.562 360.02 13.002 11.26 28.74 16.466 47.852 16.994v35c-19.108-0.528-34.85-5.734-47.852-16.994C326.325 808.382 187.725 688.45 49.276 568.386c-12.337-10.705-19.037-25.312-19.037-40.019z" fill="#E1C237"></path><path d="M510.786 76.601c16.263 0 32.546 5.362 44.946 16.097 139.95 121.188 279.901 242.376 419.819 363.586 24.241 20.995 24.295 53.413 0.079 74.397-140.15 121.42-280.35 242.796-420.489 364.217-11.815 10.239-25.813 15.502-42.452 15.502-19.109-0.528-34.852-5.734-47.854-16.994-138.511-120.024-277.111-239.956-415.56-360.02-19.581-16.988-24.96-43.81-11.895-65.251 3.919-6.438 8.669-11.829 14.465-16.849C189.954 331.734 328.024 212.152 466.107 92.567c12.296-10.64 28.478-15.966 44.679-15.966z" fill="#F0DE2C"></path><path d="M562.586 335.717v16.8c0 0.649-0.011 1.301-0.011 1.949v-16.8c0-0.647 0.011-1.298 0.011-1.949z" fill="#DCB91F"></path><path d="M562.586 335.717v16.8c0 0.649-0.011 1.301-0.011 1.949v-16.8c0-0.647 0.011-1.298 0.011-1.949" fill="#DCB91F"></path><path d="M536.883 344.973v16.8c-49.745 5.177-88.252 25.159-115.356 61.211-1.038 1.379-1.321 3.406-1.321 5.125v-16.8c0-1.72 0.283-3.745 1.321-5.124 27.105-36.053 65.611-56.036 115.356-61.212z" fill="#DCB91F"></path><path d="M536.883 344.973v16.8c-2.472 0.257-4.915 0.549-7.328 0.88v-16.8c2.414-0.331 4.857-0.623 7.328-0.88M529.555 345.853v16.8c-14.208 1.944-27.457 5.156-39.74 9.668v-16.8c12.283-4.511 25.532-7.724 39.74-9.668M489.814 355.521v16.8c-10.606 3.898-20.493 8.764-29.658 14.619v-16.8c9.166-5.854 19.052-10.721 29.658-14.619M460.156 370.141v16.801c-12.24 7.82-23.191 17.408-32.854 28.806v-16.8c9.661-11.4 20.614-20.986 32.854-28.807M427.301 398.947v16.8a159.853 159.853 0 0 0-5.775 7.236c-0.864 1.148-1.206 2.747-1.295 4.243v-16.8c0.089-1.496 0.431-3.092 1.295-4.242a159.468 159.468 0 0 1 5.775-7.237M420.231 410.427v16.8c-0.019 0.299-0.027 0.595-0.027 0.882v-16.8c0.002-0.288 0.008-0.583 0.027-0.882" fill="#DCB91F"></path><path d="M420.155 487.542v-16.8-2.769c0-18.886 0.021-37.774 0.05-56.665v16.8c-0.03 18.89-0.05 37.778-0.05 56.664v2.77z" fill="#DCB91F"></path><path d="M420.206 411.309v16.8c-0.03 18.89-0.05 37.778-0.05 56.664v2.769-16.8-2.769c-0.001-18.886 0.02-37.774 0.05-56.664" fill="#DCB91F"></path><path d="M308.124 490.26v-16.8c0-11.33 0.011-22.66 0.034-33.988 0.03-15.171 9.676-23.604 27.054-23.658a7845.688 7845.688 0 0 1 21.225-0.029h1.528c5.232 0 10.463 0.004 15.697 0.009 5.537 0.005 11.078 0.011 16.615 0.012 1.313 0 2.623 0.131 4.124 0.211v16.8c-1.502-0.081-2.813-0.21-4.124-0.21-5.539-0.001-11.08-0.007-16.615-0.012-5.234-0.006-10.464-0.01-15.697-0.01h-1.528a6317.867 6317.867 0 0 0-21.225 0.03c-17.378 0.053-27.024 8.486-27.054 23.658a15397.88 15397.88 0 0 0-0.034 33.987z" fill="#DCB91F"></path><path d="M394.401 416.015v16.8c-1.502-0.081-2.813-0.21-4.124-0.21-5.539-0.001-11.08-0.007-16.615-0.012-5.234-0.005-10.464-0.01-15.697-0.01h-1.528a6317.867 6317.867 0 0 0-21.225 0.03 46.359 46.359 0 0 0-6.069 0.399v-16.8a46.186 46.186 0 0 1 6.069-0.399 7845.688 7845.688 0 0 1 21.225-0.029h1.528c5.232 0 10.463 0.004 15.697 0.009 5.537 0.006 11.078 0.011 16.615 0.013 1.312-0.002 2.622 0.129 4.124 0.209M329.142 416.211v16.8c-2.503 0.339-4.795 0.893-6.872 1.654v-16.8c2.077-0.761 4.37-1.315 6.872-1.654M322.27 417.866v16.8a23.904 23.904 0 0 0-4.658 2.286v-16.8a23.735 23.735 0 0 1 4.658-2.286" fill="#DCB91F"></path><path d="M317.612 420.152v16.8a19.638 19.638 0 0 0-4.469 3.893v-16.8a19.592 19.592 0 0 1 4.469-3.893M313.141 424.044v16.8c-2.92 3.466-4.595 7.978-4.924 13.452v-16.8c0.329-5.475 2.005-9.986 4.924-13.452M308.217 437.497v16.8a35.336 35.336 0 0 0-0.062 1.974c-0.022 11.329-0.033 22.658-0.033 33.988v-16.8c0-11.33 0.011-22.66 0.033-33.988 0.004-0.672 0.023-1.33 0.062-1.974" fill="#DCB91F"></path><path d="M308.124 490.249v-16.8 16.8z" fill="#DCB91F"></path><path d="M308.124 475.917v14.332-16.8 2.468" fill="#DCB91F"></path><path d="M394.401 535.975v16.8c-1.432 0.069-2.852 0.185-4.283 0.185v-16.8c1.431-0.001 2.852-0.116 4.283-0.185z" fill="#DCB91F"></path><path d="M394.401 535.975v16.8c-1.432 0.069-2.852 0.185-4.283 0.185v-16.8c1.431-0.001 2.852-0.116 4.283-0.185" fill="#DCB91F"></path><path d="M357.597 536.182v16.801h-0.789c-3.42-0.002-6.84-0.002-10.261-0.006-3.685-0.003-7.369-0.011-11.054-0.02-17.679-0.034-27.316-8.424-27.335-23.797-0.021-12.147-0.033-24.295-0.034-36.445v-16.8c0 12.149 0.014 24.298 0.034 36.445 0.021 15.372 9.657 23.763 27.335 23.797 3.684 0.009 7.369 0.017 11.054 0.02 3.421 0.004 6.84 0.004 10.261 0.005h0.789z" fill="#DCB91F"></path><path d="M357.597 536.182v16.801h-0.789c-3.42-0.002-6.84-0.002-10.261-0.006-3.685-0.003-7.369-0.011-11.054-0.02-17.679-0.034-27.316-8.424-27.335-23.797-0.021-12.147-0.033-24.295-0.034-36.445v-16.8c0 12.149 0.014 24.298 0.034 36.445 0.021 15.372 9.657 23.763 27.335 23.797 3.684 0.009 7.369 0.017 11.054 0.02 3.421 0.004 6.84 0.004 10.261 0.005h0.789" fill="#DCB91F"></path><path d="M357.043 415.781l0.921 0.001c5.232 0 10.464 0.004 15.695 0.008 5.539 0.005 11.08 0.011 16.618 0.014 1.311 0 2.623 0.131 4.124 0.209v119.961c-1.432 0.069-2.852 0.185-4.283 0.185l-17.277 0.018a16866.113 16866.113 0 0 1-15.245 0.007h-0.789c-3.42-0.002-6.84-0.002-10.261-0.006-3.685-0.003-7.369-0.011-11.054-0.019-17.679-0.034-27.316-8.425-27.335-23.798-0.021-12.147-0.033-24.294-0.034-36.445s0.008-24.299 0.034-36.446c0.029-15.172 9.676-23.604 27.054-23.658 3.84-0.012 7.682-0.021 11.522-0.026 3.233-0.002 6.47-0.005 9.703-0.005h0.607z" fill="#F6EC9D"></path><path d="M390.118 536.159v16.8l-17.277 0.018a16864.93 16864.93 0 0 1-15.245 0.007v-16.8c0.339 0 0.678 0 1.016-0.002 4.744 0 9.487-0.001 14.229-0.005l17.277-0.018z" fill="#DCB91F"></path><path d="M390.118 536.159v16.8l-17.277 0.018a16864.93 16864.93 0 0 1-15.245 0.007v-16.8c0.339 0 0.678 0 1.016-0.002 4.744 0 9.487-0.001 14.229-0.005l17.277-0.018" fill="#DCB91F"></path><path d="M420.155 488.116v-16.8c0 23.17 0.027 46.34 0.091 69.513v16.8a25567.58 25567.58 0 0 1-0.091-69.513z" fill="#DCB91F"></path><path d="M420.247 540.829v16.8c-0.064-23.172-0.091-46.343-0.091-69.512v-16.8c-0.001 23.169 0.027 46.339 0.091 69.512" fill="#DCB91F"></path><path d="M536.883 606.737v16.8c-12.106-0.577-23.679-2.793-34.918-6.138-33.607-9.995-60.31-27.796-79.632-53.687-1.28-1.721-2.086-4.043-2.086-6.085v-16.8c0 2.042 0.807 4.363 2.086 6.085 19.324 25.891 46.025 43.691 79.632 53.687 11.239 3.345 22.811 5.561 34.918 6.138z" fill="#DCB91F"></path><path d="M536.883 606.737v16.8c-12.106-0.577-23.679-2.793-34.918-6.138-33.607-9.995-60.31-27.796-79.632-53.687-1.28-1.721-2.086-4.043-2.086-6.085v-16.8c0 2.042 0.807 4.363 2.086 6.085 19.324 25.891 46.025 43.691 79.632 53.687 11.239 3.345 22.811 5.561 34.918 6.138" fill="#DCB91F"></path><path d="M536.883 344.973v261.765c-12.106-0.577-23.679-2.793-34.918-6.138-33.607-9.995-60.31-27.795-79.632-53.687-1.28-1.722-2.086-4.043-2.086-6.085a24921.12 24921.12 0 0 1-0.091-72.856c0-18.886 0.021-37.775 0.05-56.666 0-1.72 0.283-3.744 1.321-5.125 27.105-36.049 65.611-56.032 115.356-61.208z" fill="#F6EC9D"></path><path d="M562.575 337.666v16.8c0 92.219 0 184.428-0.009 276.64v-16.8c0.009-92.211 0.009-184.421 0.009-276.64z" fill="#DCB91F"></path><path d="M562.575 337.666v16.8c0 92.219 0 184.428-0.009 276.64v-16.8c0.009-92.211 0.009-184.421 0.009-276.64" fill="#DCB91F"></path><path d="M562.535 333.791c0.082 1.284 0.04 2.584 0.04 3.876 0 92.219 0 184.428-0.009 276.641 0 1.422 0.04 2.853-0.07 4.267-0.529 6.606-5.573 10.897-13.214 10.897-36.413-0.465-69.646-9.158-99.574-26.872-18.829-11.146-34.613-24.946-47.173-41.454-1.664-2.177-3.477-2.95-6.431-2.95-11.026 0.06-21.954 0.076-32.881 0.076-9.384 0-18.768-0.011-28.152-0.017-27.266-0.025-46.025-13.19-51.781-36.323-0.081-0.338-0.453-0.627-0.685-0.934v-90.02c1.389-3.78 2.327-7.725 4.255-11.286 8.899-16.527 24.05-25.447 45.076-25.874 8.697-0.176 17.396-0.235 26.097-0.235 12.506 0 25.01 0.122 37.52 0.199 3.422 0.001 5.331-0.881 7.236-3.282 29.654-37.345 70.469-59.456 122.139-66.413 7.791-1.057 15.756-1.302 23.648-1.554 8.566-0.015 13.519 4.343 13.959 11.258z m-25.652 272.946V344.972c-49.745 5.177-88.252 25.159-115.356 61.212-1.038 1.379-1.321 3.404-1.321 5.124-0.03 18.891-0.05 37.778-0.05 56.665-0.003 24.285 0.024 48.569 0.091 72.856 0 2.043 0.807 4.364 2.086 6.085 19.322 25.893 46.025 43.693 79.632 53.688 11.238 3.342 22.811 5.558 34.918 6.135m-142.482-70.762v-119.96c-1.502-0.081-2.813-0.21-4.124-0.21-5.539-0.001-11.08-0.007-16.615-0.013-5.234-0.005-10.464-0.009-15.697-0.009h-1.528c-3.235 0-6.468 0.001-9.703 0.005-3.842 0.004-7.682 0.014-11.522 0.024-17.378 0.054-27.024 8.486-27.054 23.658a15811.67 15811.67 0 0 0-0.034 36.446c0 12.149 0.014 24.298 0.034 36.445 0.021 15.373 9.657 23.764 27.337 23.798a8148.754 8148.754 0 0 0 21.313 0.025H358.613c4.744 0 9.487-0.003 14.23-0.007l17.277-0.018c1.429 0 2.85-0.115 4.281-0.184" fill="#EFD350"></path><path d="M562.572 616.117v16.8c0 0.822-0.013 1.643-0.076 2.456-0.529 6.606-5.573 10.897-13.214 10.897-36.413-0.465-69.646-9.158-99.574-26.872-18.829-11.146-34.613-24.947-47.173-41.454-1.664-2.177-3.477-2.95-6.431-2.95-11.026 0.06-21.954 0.076-32.881 0.076-9.384 0-18.768-0.011-28.152-0.017-27.266-0.025-46.025-13.19-51.781-36.323-0.081-0.339-0.453-0.628-0.685-0.934v-16.8c0.232 0.306 0.604 0.595 0.685 0.934 5.756 23.133 24.515 36.299 51.781 36.323 9.384 0.006 18.769 0.017 28.152 0.017 10.927 0 21.853-0.017 32.881-0.077 2.955 0 4.768 0.775 6.431 2.951 12.561 16.507 28.345 30.308 47.173 41.454 29.928 17.713 63.161 26.407 99.574 26.872 7.64 0 12.685-4.292 13.214-10.897 0.064-0.813 0.076-1.634 0.076-2.456z" fill="#DCB91F"></path><path d="M562.572 616.117v16.8c0 0.689-0.008 1.379-0.049 2.064v-16.8c0.041-0.686 0.049-1.374 0.049-2.064M562.523 618.182v16.8l-0.027 0.392c-0.208 2.603-1.119 4.847-2.611 6.61v-16.8c1.492-1.764 2.403-4.006 2.611-6.61l0.027-0.392M559.885 625.184v16.8a10.844 10.844 0 0 1-2.464 2.145v-16.8a10.94 10.94 0 0 0 2.464-2.145" fill="#DCB91F"></path><path d="M557.421 627.328v16.8c-0.741 0.475-1.555 0.875-2.434 1.198v-16.8a12.467 12.467 0 0 0 2.434-1.198M554.987 628.526v16.8a15.37 15.37 0 0 1-3.192 0.779v-16.8a15.229 15.229 0 0 0 3.192-0.779M551.795 629.306v16.8c-0.8 0.109-1.641 0.165-2.512 0.165-36.412-0.465-69.646-9.158-99.574-26.872-18.829-11.146-34.613-24.947-47.172-41.454-1.666-2.177-3.478-2.95-6.433-2.95-11.026 0.06-21.955 0.076-32.882 0.076-9.383 0-18.766-0.011-28.15-0.017-27.267-0.025-46.025-13.19-51.781-36.323-0.081-0.339-0.454-0.628-0.687-0.934v-16.8c0.232 0.306 0.606 0.595 0.687 0.934 5.756 23.133 24.514 36.299 51.781 36.323 9.384 0.006 18.769 0.017 28.15 0.017 10.928 0 21.854-0.017 32.882-0.077 2.955 0 4.767 0.775 6.433 2.951 12.559 16.507 28.343 30.308 47.172 41.454 29.928 17.713 63.162 26.407 99.574 26.872 0.871 0 1.712-0.056 2.512-0.165" fill="#DCB91F"></path><path d="M638.659 476.308v16.8c0-17.824-6.368-35.709-18.989-49.279-6.49-6.966-14.675-12.763-22.255-18.934-3.053-2.483-4.832-5.283-4.832-8.534V399.56c0 3.252 1.78 6.051 4.832 8.535 7.58 6.172 15.765 11.969 22.255 18.935 12.621 13.568 18.989 31.453 18.989 49.278z" fill="#E6D32B"></path><path d="M638.659 476.308v16.8c0-17.824-6.368-35.709-18.989-49.279-6.49-6.966-14.675-12.763-22.255-18.934-3.053-2.483-4.832-5.283-4.832-8.534V399.56c0 3.252 1.78 6.051 4.832 8.535 7.58 6.172 15.765 11.969 22.255 18.935 12.621 13.568 18.989 31.453 18.989 49.278" fill="#E6D32B"></path><path d="M715.758 476.521v16.8c0-39.725-19.651-79.118-55.858-105.369-4.002-2.897-8.225-5.57-12.309-8.388-3.733-2.575-5.661-5.875-5.661-9.201v-16.8c0 3.325 1.928 6.626 5.661 9.201 4.084 2.817 8.307 5.49 12.309 8.388 36.206 26.25 55.858 65.645 55.858 105.369z" fill="#E6D32B"></path><path d="M715.758 476.521v16.8c0-39.725-19.651-79.118-55.858-105.369-4.002-2.897-8.225-5.57-12.309-8.388-3.733-2.575-5.661-5.875-5.661-9.201v-16.8c0 3.325 1.928 6.626 5.661 9.201 4.084 2.817 8.307 5.49 12.309 8.388 36.206 26.25 55.858 65.645 55.858 105.369" fill="#E6D32B"></path><path d="M592.548 569.585v-16.8c0 2.387 0.968 4.777 2.889 6.849 2.535 2.725 6.057 4.153 9.745 4.153 2.782 0 5.656-0.813 8.267-2.495 32.961-21.211 49.667-49.75 51.127-85.637v16.8c-1.46 35.887-18.166 64.425-51.127 85.636-2.61 1.682-5.484 2.495-8.267 2.495-3.688 0-7.21-1.429-9.745-4.153-1.919-2.071-2.889-4.46-2.889-6.848z" fill="#E6D32B"></path><path d="M664.575 475.654v16.8a117.12 117.12 0 0 1-0.12 2.396v-16.8c0.049-0.794 0.088-1.592 0.12-2.396M664.455 478.051v16.8c-1.375 22.819-9.038 42.614-23.257 59.387v-16.8c14.219-16.774 21.882-36.567 23.257-59.387M641.198 537.438v16.8c-7.44 8.78-16.678 16.729-27.749 23.854-0.018 0.012-0.034 0.024-0.055 0.035v-16.8l0.055-0.036c11.072-7.125 20.309-15.075 27.749-23.853" fill="#E6D32B"></path><path d="M613.395 561.326v16.8a15.97 15.97 0 0 1-3.087 1.535v-16.8a15.912 15.912 0 0 0 3.087-1.535M610.308 562.861v16.8a15.077 15.077 0 0 1-3.162 0.79v-16.8a15.093 15.093 0 0 0 3.162-0.79M607.146 563.651v16.8c-0.656 0.089-1.313 0.135-1.962 0.135-3.688 0-7.211-1.429-9.745-4.154-1.921-2.071-2.89-4.461-2.89-6.848v-16.8c0 2.387 0.969 4.776 2.89 6.848 2.534 2.725 6.057 4.153 9.745 4.153 0.649 0 1.305-0.043 1.962-0.134" fill="#E6D32B"></path><path d="M604.496 388.731c2.859 0 6.003 0.561 8.126 1.837 20.988 12.579 35.837 29.462 44.374 50.256 2.882 7.009 4.546 14.429 6.228 21.754 1.009 4.408 0.958 8.991 1.352 13.076-1.46 35.888-18.166 64.424-51.127 85.636-2.61 1.682-5.484 2.495-8.267 2.495-3.688 0-7.21-1.429-9.745-4.153-4.536-4.889-3.761-11.569 2.539-15.748 11.512-7.647 21.188-16.542 28.587-27.431 18.266-26.859 15.745-65.084-6.896-89.424-6.489-6.966-14.675-12.763-22.255-18.935-3.829-3.117-5.654-6.73-4.475-11.113 1.169-4.339 4.436-7.657 9.615-8.162a21.375 21.375 0 0 1 1.944-0.088z" fill="#F7ED86"></path><path d="M641.934 615.256v-16.8c0 2.242 0.861 4.49 2.595 6.509 2.529 2.945 6.054 4.483 9.86 4.483 2.882 0 5.925-0.883 8.816-2.704 38.507-24.233 63.383-56.341 73.737-96.653 1.976-7.656 2.992-15.495 4.455-23.245v16.8c-1.463 7.75-2.479 15.589-4.455 23.245-10.354 40.313-35.23 72.421-73.737 96.653-2.89 1.819-5.935 2.704-8.816 2.704-3.807 0-7.331-1.539-9.86-4.482-1.734-2.02-2.595-4.269-2.595-6.51z" fill="#E6D32B"></path><path d="M741.395 486.846v16.8c-1.461 7.75-2.479 15.589-4.454 23.245-5.834 22.716-16.279 42.826-31.175 60.39v-16.8c14.896-17.564 25.341-37.674 31.175-60.39 1.975-7.655 2.993-15.495 4.454-23.245M705.766 570.48v16.8c-11.249 13.264-25.035 25.073-41.293 35.46v-16.8c16.257-10.386 30.044-22.196 41.293-35.46M664.473 605.94v16.8c-0.42 0.268-0.845 0.537-1.269 0.804a18.42 18.42 0 0 1-3.474 1.722v-16.801a18.355 18.355 0 0 0 3.474-1.721c0.425-0.266 0.849-0.535 1.269-0.804" fill="#E6D32B"></path><path d="M659.73 608.465v16.801a16.117 16.117 0 0 1-3.369 0.846v-16.8a16.027 16.027 0 0 0 3.369-0.847M656.361 609.313v16.801c-0.666 0.09-1.323 0.137-1.975 0.137-3.806 0-7.33-1.54-9.859-4.483-1.732-2.02-2.596-4.269-2.596-6.509v-16.801c0 2.242 0.861 4.49 2.596 6.51 2.529 2.944 6.054 4.482 9.859 4.482a15.04 15.04 0 0 0 1.975-0.137" fill="#E6D32B"></path><path d="M654.46 342.528c2.75 0 5.624 0.82 8.321 2.522 45.823 28.948 71.921 67.777 77.777 116.714 0.144 1.126 0.547 2.235 0.836 3.353v21.73c-1.461 7.75-2.479 15.59-4.454 23.245-10.354 40.314-35.229 72.421-73.736 96.653-2.892 1.821-5.935 2.704-8.817 2.704-3.806 0-7.33-1.539-9.859-4.482-4.397-5.126-3.195-11.733 3.518-15.932 22.721-14.212 40.228-32.117 52.437-54.01 30.844-55.319 13.818-124.432-40.582-163.872-4.002-2.898-8.225-5.571-12.309-8.389-6.228-4.295-7.43-10.608-3.043-15.696 2.551-2.976 6.115-4.54 9.911-4.54z" fill="#F7ED86"></path></svg>